# xmcd
#
# Track frame offsets: 
#        150
#        16210
#        35133
#        62388
#        78506
#        107278
#        128171
#        159480
#        174240
#        201055
#        233648
#
# Disc length: 3318 seconds
#
# Revision: 0
# Processed by: cddbd v1.5.2PL0 Copyright (c) Steve Scherf et al.
# Submitted via: ExactAudioCopy v0.99pb4
#
DISCID=7b0cf40b
DTITLE=New Guitar Summit - Shivers
DYEAR=2008
DGENRE=Blues
TTITLE0=Little Bitty Pretty One
TTITLE1=Flying Home
TTITLE2=Your Mind Is On Vacation
TTITLE3=Shivers
TTITLE4=Blue Sunset
TTITLE5=Broadway
TTITLE6=Everybody's Crying Mercy
TTITLE7=Jim Jam
TTITLE8=Honey Suckle Rose
TTITLE9=Wellspring Blues
TTITLE10=Mediterranean Nights
EXTD=
EXTT0=
EXTT1=
EXTT2=
EXTT3=
EXTT4=
EXTT5=
EXTT6=
EXTT7=
EXTT8=
EXTT9=
EXTT10=
PLAYORDER=
